<svg xmlns="http://www.w3.org/2000/svg" width="44" height="44" viewBox="0 0 44 44"><defs><style>.a{fill:#005b82;}</style></defs><path class="a" d="M42,24.53a9.18,9.18,0,0,0-8.19-9.11A12.29,12.29,0,0,0,18.63,7a12.22,12.22,0,0,0-8.44,8.47A9.18,9.18,0,0,0,2,24.53H2a9.2,9.2,0,0,0,2.47,6.15c1.84,1.9,4.51,2.84,7.9,2.84A28.27,28.27,0,0,0,22,31.82a25.68,25.68,0,0,0,3,.89,28,28,0,0,0,6.63.8c3.42,0,6.1-.94,7.9-2.84A9.07,9.07,0,0,0,42,24.53Zm-2.5,0h0A6.71,6.71,0,0,1,37.72,29C36.37,30.33,34.33,31,31.63,31a25.9,25.9,0,0,1-10.58-2.27,20.81,20.81,0,0,1-3.88-2.24l-.08-.08s0-.06,0-.12v-5.2a.31.31,0,0,1,.14-.23l4.69-2.41a.3.3,0,0,1,.23,0l4.68,2.41a.27.27,0,0,1,.14.23v5.23a.22.22,0,0,1-.05.17A15,15,0,0,1,24.59,28a27.56,27.56,0,0,0,3.47.77,3.9,3.9,0,0,0,.46-.34l0,0a2.77,2.77,0,0,0,.92-2.07v-5.2A2.78,2.78,0,0,0,28,18.64L23.3,16.23a2.76,2.76,0,0,0-2.53,0l-4.72,2.41a2.76,2.76,0,0,0-1.49,2.47v5.23a2.81,2.81,0,0,0,.92,2.07l0,0a20.7,20.7,0,0,0,3,1.9,25.81,25.81,0,0,1-6.12.74c-2.7,0-4.74-.69-6.1-2.06A6.83,6.83,0,0,1,4.5,24.58h0v0a6.68,6.68,0,0,1,6.67-6.67h1l.2-1a9.75,9.75,0,0,1,19.14,0l.2,1h1a6.68,6.68,0,0,1,6.67,6.67Z"/></svg>